<svg width="165" height="40" viewBox="0 0 165 40" fill="none" xmlns="http://www.w3.org/2000/svg">
<g clip-path="url(#clip0)">
<path d="M155.452 0H9.65897C9.29227 0 8.92997 0 8.56417 0.002C8.25807 0.0039 7.95437 0.0098 7.64527 0.0146C6.97977 0.0312 6.30587 0.0723 5.64137 0.1914C4.97197 0.3086 4.34987 0.5088 3.74047 0.8184C3.14187 1.125 2.59497 1.5234 2.12187 1.9971C1.64327 2.4707 1.24687 3.0195 0.943568 3.6182C0.632568 4.2266 0.435268 4.8516 0.318568 5.5215C0.197968 6.1836 0.156468 6.8535 0.139368 7.5235C0.130168 7.8301 0.129168 8.1377 0.124268 8.4443C0.124268 8.8066 0.124268 9.1699 0.124268 9.5361V30.4648C0.124268 30.834 0.124268 31.1953 0.124268 31.5586C0.129168 31.8691 0.130168 32.1699 0.139368 32.4805C0.156468 33.1504 0.197968 33.8203 0.318568 34.4824C0.435268 35.1523 0.632568 35.7803 0.943568 36.3867C1.24677 36.9824 1.64327 37.5313 2.12177 38.001C2.59487 38.4785 3.14177 38.876 3.74047 39.1797C4.34987 39.4922 4.97187 39.6895 5.64137 39.8105C6.30587 39.9297 6.97977 39.9688 7.64527 39.9873C7.95437 39.9941 8.25807 39.998 8.56417 39.998C8.92997 40 9.29227 40 9.65897 40H155.452C155.811 40 156.176 40 156.536 39.998C156.84 39.998 157.153 39.9941 157.458 39.9873C158.127 39.9688 158.799 39.9297 159.458 39.8105C160.127 39.6895 160.75 39.4922 161.366 39.1797C161.963 38.876 162.51 38.4785 162.983 38.001C163.459 37.5313 163.856 36.9824 164.165 36.3867C164.471 35.7803 164.67 35.1523 164.784 34.4824C164.907 33.8203 164.946 33.1504 164.969 32.4805C164.973 32.1699 164.973 31.8691 164.973 31.5586C164.981 31.1953 164.981 30.834 164.981 30.4648V9.5361C164.981 9.1699 164.981 8.8066 164.973 8.4443C164.973 8.1377 164.973 7.83 164.969 7.5234C164.946 6.8535 164.907 6.1836 164.784 5.5214C164.67 4.8515 164.471 4.2265 164.165 3.6181C163.856 3.0195 163.459 2.4706 162.983 1.997C162.51 1.5234 161.963 1.1249 161.366 0.8183C160.75 0.5087 160.127 0.3085 159.458 0.1913C158.799 0.0722 158.127 0.0311 157.458 0.0145C157.153 0.0096 156.84 0.0038 156.536 0.0018C156.176 0 155.811 0 155.452 0Z" fill="#A6A6A6"/>
<path d="M8.56902 39.125C8.26432 39.125 7.96701 39.1211 7.66471 39.1143C7.10561 39.0986 6.44251 39.0674 5.79561 38.9512C5.18521 38.8408 4.64281 38.6611 4.13891 38.4033C3.61741 38.1387 3.14871 37.7969 2.74191 37.3867C2.32781 36.9805 1.98751 36.5137 1.72141 35.9902C1.46211 35.4854 1.28491 34.9434 1.17841 34.333C1.05631 33.6602 1.02511 32.9775 1.01191 32.458C1.00561 32.2471 0.997314 31.5449 0.997314 31.5449V8.4443C0.997314 8.4443 1.00611 7.7529 1.01191 7.5498C1.02511 7.0259 1.05631 6.3438 1.17741 5.6777C1.28441 5.064 1.46161 4.5225 1.72091 4.0156C1.98651 3.4912 2.32731 3.022 2.73601 2.6177C3.14961 2.2036 3.62031 1.8609 4.13831 1.5952C4.65201 1.3345 5.19351 1.1562 5.79161 1.0513C6.46491 0.9307 7.14761 0.9004 7.66711 0.8872L8.56951 0.875H156.531L157.444 0.8877C157.956 0.9004 158.639 0.9307 159.302 1.0503C159.905 1.1558 160.45 1.335 160.973 1.5982C161.486 1.8609 161.955 2.2037 162.365 2.6138C162.774 3.02 163.117 3.4917 163.388 4.0181C163.646 4.5293 163.822 5.0708 163.923 5.667C164.039 6.2979 164.076 6.9458 164.097 7.5542C164.1 7.8374 164.1 8.1416 164.1 8.4443C164.108 8.8193 164.108 9.1762 164.108 9.5361V30.4648C164.108 30.8281 164.108 31.1826 164.1 31.54C164.1 31.8652 164.1 32.1631 164.096 32.4697C164.076 33.0586 164.039 33.7061 163.925 34.3232C163.822 34.9365 163.646 35.4785 163.385 35.9932C163.116 36.5127 162.773 36.9824 162.37 37.3789C161.956 37.7969 161.488 38.1377 160.97 38.4014C160.452 38.665 159.922 38.8398 159.302 38.9512C158.662 39.0674 157.998 39.0986 157.433 39.1143C157.14 39.1211 156.833 39.125 156.536 39.125L155.452 39.127L8.56902 39.125Z" fill="black"/>
<path fill-rule="evenodd" clip-rule="evenodd" d="M32.3063 29.2281C32.0617 29.8494 31.4973 30.7242 30.6969 31.3404C30.2348 31.6963 29.6831 32.0365 28.9253 32.261C28.1175 32.5004 27.1225 32.5813 25.8841 32.5813H14.5608C13.3225 32.5813 12.3275 32.5004 11.5196 32.261C10.7618 32.0365 10.2102 31.6963 9.74797 31.3404C8.94767 30.7241 8.38317 29.8494 8.13857 29.2281C7.64587 27.9763 7.64087 26.556 7.64087 25.6615V14.3381C7.64087 13.4436 7.64587 12.0233 8.13857 10.7715C8.38317 10.1502 8.94757 9.27537 9.74797 8.65917C10.2101 8.30327 10.7618 7.96307 11.5196 7.73857C12.3274 7.49917 13.3224 7.41827 14.5608 7.41827H25.8842C27.1225 7.41827 28.1175 7.49917 28.9254 7.73857C29.6832 7.96307 30.2348 8.30337 30.697 8.65917C31.4973 9.27547 32.0618 10.1502 32.3064 10.7715C32.7991 12.0233 32.8041 13.4436 32.8041 14.3381V25.6615C32.804 26.5559 32.799 27.9762 32.3063 29.2281Z" fill="url(#paint0_linear)"/>
<path d="M22.0473 21.8815C21.6697 21.4831 21.0065 21.2277 20.2236 21.2277C19.4406 21.2277 18.7774 21.4831 18.3998 21.8815C18.2028 22.0894 18.0986 22.3025 18.0658 22.6061C18.0022 23.194 18.0379 23.7002 18.1068 24.5095C18.1724 25.2807 18.297 26.3091 18.4596 27.3565C18.5753 28.1019 18.6693 28.5042 18.7549 28.7923C18.8937 29.2592 19.4124 29.6675 20.2236 29.6675C21.0347 29.6675 21.5534 29.2591 21.6922 28.7923C21.7778 28.5042 21.8718 28.1019 21.9875 27.3565C22.1501 26.3091 22.2747 25.2807 22.3403 24.5095C22.4092 23.7001 22.4449 23.1939 22.3813 22.6061C22.3485 22.3026 22.2443 22.0894 22.0473 21.8815ZM18.1662 18.3342C18.1662 19.4715 19.0882 20.3935 20.2255 20.3935C21.3629 20.3935 22.2849 19.4715 22.2849 18.3342C22.2849 17.1968 21.3629 16.2748 20.2255 16.2748C19.0882 16.2748 18.1662 17.1968 18.1662 18.3342ZM20.2 10.2072C15.3837 10.2209 11.4372 14.1282 11.3776 18.9442C11.3292 22.8455 13.8196 26.1827 17.2971 27.4059C17.3815 27.4356 17.4672 27.3655 17.4539 27.277C17.4083 26.9741 17.3653 26.6697 17.3258 26.3704C17.3118 26.2646 17.2444 26.1734 17.1467 26.1307C14.3981 24.9299 12.4788 22.1733 12.5096 18.9802C12.55 14.7898 15.9718 11.3736 20.1622 11.3397C24.4461 11.3051 27.9422 14.7799 27.9422 19.0559C27.9422 22.217 26.0313 24.9398 23.3041 26.131C23.2064 26.1737 23.1394 26.2652 23.1255 26.3709C23.086 26.6701 23.043 26.9744 22.9975 27.277C22.9841 27.3655 23.0698 27.4356 23.1542 27.406C26.5985 26.1945 29.0744 22.9092 29.0744 19.056C29.0742 14.1681 25.0909 10.1932 20.2 10.2072ZM20.0401 14.2667C22.7704 14.161 25.0252 16.3514 25.0252 19.0586C25.0252 20.4354 24.4419 21.6784 23.5096 22.5538C23.4305 22.628 23.388 22.7334 23.3941 22.8417C23.4127 23.171 23.4059 23.491 23.384 23.8524C23.3781 23.9487 23.4861 24.0102 23.5658 23.9559C25.1292 22.8875 26.1575 21.091 26.1575 19.0586C26.1575 15.7122 23.3701 13.0045 19.9952 13.1353C16.8588 13.2569 14.3425 15.8428 14.3023 18.9814C14.2759 21.0456 15.3105 22.8743 16.894 23.9561C16.9735 24.0104 17.0812 23.9488 17.0753 23.8526C17.0533 23.491 17.0466 23.171 17.0651 22.8417C17.0712 22.7335 17.0288 22.6281 16.9499 22.554C15.9885 21.6514 15.3981 20.3579 15.4357 18.9299C15.5019 16.4169 17.528 14.364 20.0401 14.2667Z" fill="white"/>
<path d="M46.3472 27.8223H41.6138L40.4771 31.1787H38.4722L42.9556 18.7598H45.0386L49.522 31.1787H47.4829L46.3472 27.8223ZM42.104 26.2734H45.856L44.0064 20.8252H43.9546L42.104 26.2734Z" fill="white"/>
<path d="M59.2046 26.6523C59.2046 29.4658 57.6987 31.2734 55.4263 31.2734C54.1363 31.2734 53.1118 30.6963 52.5777 29.6894H52.5347V34.1738H50.6763V22.125H52.4751V23.6309H52.5093C53.0259 22.6592 54.1275 22.0303 55.3921 22.0303C57.6899 22.0303 59.2046 23.8467 59.2046 26.6523ZM57.2944 26.6523C57.2944 24.8193 56.3471 23.6142 54.9018 23.6142C53.4819 23.6142 52.5268 24.8447 52.5268 26.6523C52.5268 28.4765 53.4819 29.6982 54.9018 29.6982C56.3472 29.6982 57.2944 28.502 57.2944 26.6523Z" fill="white"/>
<path d="M69.1694 26.6523C69.1694 29.4658 67.6635 31.2734 65.3911 31.2734C64.1011 31.2734 63.0767 30.6963 62.5425 29.6894H62.4995V34.1738H60.6411V22.125H62.4399V23.6309H62.4741C62.9907 22.6592 64.0923 22.0303 65.3569 22.0303C67.6548 22.0303 69.1694 23.8467 69.1694 26.6523ZM67.2593 26.6523C67.2593 24.8193 66.312 23.6142 64.8667 23.6142C63.4468 23.6142 62.4917 24.8447 62.4917 26.6523C62.4917 28.4765 63.4468 29.6982 64.8667 29.6982C66.312 29.6982 67.2593 28.502 67.2593 26.6523Z" fill="white"/>
<path d="M70.6743 18.7598H72.5337V31.1787H70.6743V18.7598Z" fill="white"/>
<path d="M82.2095 28.5195C81.9595 30.1631 80.3589 31.291 78.3111 31.291C75.6773 31.291 74.0425 29.5264 74.0425 26.6953C74.0425 23.8555 75.6861 22.0137 78.2329 22.0137C80.7378 22.0137 82.313 23.7344 82.313 26.4795V27.1162H75.9185V27.2285C75.9185 28.7773 76.8912 29.793 78.354 29.793C79.3862 29.793 80.1958 29.3028 80.4448 28.5196H82.2095V28.5195ZM75.9272 25.8174H80.4536C80.4106 24.4317 79.5239 23.5195 78.2329 23.5195C76.9507 23.5195 76.022 24.4492 75.9272 25.8174Z" fill="white"/>
<path d="M92.2114 18.7598C94.6206 18.7598 96.2993 20.4209 96.2993 22.8399C96.2993 25.2667 94.5864 26.9356 92.1509 26.9356H89.4829V31.1788H87.5552V18.7598H92.2114ZM89.4829 25.3184H91.6948C93.3725 25.3184 94.3276 24.4141 94.3276 22.8487C94.3276 21.2823 93.3725 20.3863 91.7036 20.3863H89.4829V25.3184V25.3184Z" fill="white"/>
<path d="M96.978 26.6523C96.978 23.8037 98.6557 22.0136 101.272 22.0136C103.897 22.0136 105.567 23.8036 105.567 26.6523C105.567 29.5087 103.906 31.291 101.272 31.291C98.6391 31.291 96.978 29.5088 96.978 26.6523ZM103.673 26.6523C103.673 24.6982 102.778 23.5449 101.272 23.5449C99.766 23.5449 98.8705 24.707 98.8705 26.6523C98.8705 28.6142 99.766 29.7587 101.272 29.7587C102.778 29.7587 103.673 28.6143 103.673 26.6523Z" fill="white"/>
<path d="M106.872 26.6523C106.872 23.8554 108.412 22.0302 110.658 22.0302C111.957 22.0302 112.982 22.6327 113.497 23.6308H113.533V18.7597H115.4V31.1786H113.592V29.6386H113.558C113.025 30.6708 111.992 31.2734 110.675 31.2734C108.412 31.2734 106.872 29.4492 106.872 26.6523ZM108.773 26.6523C108.773 28.5107 109.72 29.6982 111.165 29.6982C112.594 29.6982 113.549 28.4931 113.549 26.6523C113.549 24.8271 112.594 23.6142 111.165 23.6142C109.72 23.6143 108.773 24.8105 108.773 26.6523Z" fill="white"/>
<path d="M123.308 25.2402C123.145 24.2851 122.396 23.5713 121.174 23.5713C119.746 23.5713 118.798 24.7676 118.798 26.6524C118.798 28.5801 119.754 29.7413 121.191 29.7413C122.344 29.7413 123.102 29.1651 123.308 28.1153H125.098C124.892 30.0167 123.369 31.2911 121.174 31.2911C118.592 31.2911 116.906 29.5265 116.906 26.6524C116.906 23.8379 118.592 22.0137 121.157 22.0137C123.48 22.0137 124.926 23.4766 125.082 25.2403H123.308V25.2402Z" fill="white"/>
<path d="M126.237 28.6055C126.237 27.0225 127.45 26.0664 129.601 25.9375L132.08 25.7998V25.1113C132.08 24.1045 131.418 23.5361 130.291 23.5361C129.257 23.5361 128.535 24.0273 128.388 24.8105H126.65C126.702 23.1748 128.224 22.0136 130.341 22.0136C132.502 22.0136 133.93 23.1923 133.93 24.9736V31.1787H132.149V29.6894H132.106C131.581 30.6962 130.436 31.3339 129.249 31.3339C127.476 31.334 126.237 30.2324 126.237 28.6055ZM132.08 27.7881V27.0908L129.851 27.2285C128.741 27.2978 128.113 27.7793 128.113 28.5537C128.113 29.3457 128.767 29.8623 129.765 29.8623C131.065 29.8623 132.08 28.9668 132.08 27.7881Z" fill="white"/>
<path d="M139.118 22.0225C141.124 22.0225 142.56 23.1319 142.603 24.7325H140.856C140.779 23.9327 140.099 23.4425 139.066 23.4425C138.059 23.4425 137.388 23.9064 137.388 24.6124C137.388 25.1544 137.836 25.5157 138.774 25.7481L140.297 26.1016C142.122 26.5401 142.81 27.211 142.81 28.5371C142.81 30.1719 141.261 31.291 139.049 31.291C136.915 31.291 135.478 30.1972 135.34 28.5449H137.181C137.311 29.414 138.007 29.8789 139.135 29.8789C140.246 29.8789 140.943 29.4228 140.943 28.7002C140.943 28.1406 140.598 27.8398 139.652 27.5986L138.034 27.2031C136.398 26.8066 135.572 25.9717 135.572 24.7158C135.572 23.1152 137.009 22.0225 139.118 22.0225Z" fill="white"/>
<path d="M146.848 19.9819V22.125H148.57V23.5967H146.848V28.5879C146.848 29.3633 147.193 29.7246 147.95 29.7246C148.139 29.7246 148.441 29.6982 148.561 29.6816V31.1445C148.355 31.1963 147.942 31.2304 147.529 31.2304C145.696 31.2304 144.981 30.5419 144.981 28.7861V23.5966H143.665V22.125H144.981V19.9819H146.848Z" fill="white"/>
<path d="M153.567 22.0225C155.573 22.0225 157.009 23.1319 157.052 24.7325H155.305C155.228 23.9327 154.548 23.4425 153.515 23.4425C152.508 23.4425 151.837 23.9064 151.837 24.6124C151.837 25.1544 152.285 25.5157 153.223 25.7481L154.747 26.1016C156.571 26.5401 157.259 27.211 157.259 28.5371C157.259 30.1719 155.71 31.291 153.499 31.291C151.364 31.291 149.927 30.1972 149.79 28.5449H151.63C151.76 29.414 152.457 29.8789 153.584 29.8789C154.695 29.8789 155.392 29.4228 155.392 28.7002C155.392 28.1406 155.047 27.8398 154.101 27.5986L152.483 27.2031C150.847 26.8066 150.021 25.9717 150.021 24.7158C150.021 23.1152 151.458 22.0225 153.567 22.0225Z" fill="white"/>
<path d="M43.0821 14.6611H39.3604V8.69434H40.2867V13.809H43.0821V14.6611Z" fill="white"/>
<path d="M44.1587 8.82672C44.1587 8.51622 44.4028 8.28082 44.7334 8.28082C45.0645 8.28082 45.3081 8.51622 45.3081 8.82672C45.3081 9.13242 45.0644 9.36822 44.7334 9.36822C44.4028 9.36822 44.1587 9.13232 44.1587 8.82672ZM44.291 10.1582H45.1758V14.6611H44.291V10.1582Z" fill="white"/>
<path d="M48.255 10.0714C49.2682 10.0714 49.9298 10.5426 50.0162 11.3365H49.1646C49.0816 11.0059 48.7593 10.795 48.2549 10.795C47.7583 10.795 47.3823 11.0304 47.3823 11.3819C47.3823 11.6509 47.6098 11.8204 48.0976 11.9322L48.8461 12.1055C49.7021 12.3042 50.1029 12.6724 50.1029 13.334C50.1029 14.1817 49.3133 14.7481 48.2382 14.7481C47.1669 14.7481 46.4682 14.2642 46.3896 13.4664H47.2788C47.3906 13.8136 47.7212 14.0284 48.2588 14.0284C48.813 14.0284 49.2061 13.7804 49.2061 13.4205C49.2061 13.1519 48.9952 12.9781 48.544 12.8707L47.7584 12.6886C46.9024 12.486 46.5055 12.1017 46.5055 11.4318C46.5055 10.6334 47.2374 10.0714 48.255 10.0714Z" fill="white"/>
<path d="M52.4702 9.03711V10.1787H53.4458V10.9272H52.4702V13.2426C52.4702 13.7143 52.6645 13.9208 53.1069 13.9208C53.2431 13.9208 53.3217 13.9125 53.4458 13.9003V14.6405C53.3013 14.6649 53.1357 14.6859 52.9619 14.6859C51.9736 14.6859 51.581 14.3382 51.581 13.4701V10.9271H50.8657V10.1786H51.581V9.03711H52.4702Z" fill="white"/>
<path d="M58.3775 13.4454C58.1749 14.252 57.4551 14.7481 56.4258 14.7481C55.1353 14.7481 54.3457 13.8633 54.3457 12.4239C54.3457 10.9849 55.1519 10.0714 56.4214 10.0714C57.6743 10.0714 58.4312 10.9274 58.4312 12.3414V12.6515H55.251V12.7013C55.2803 13.4909 55.7393 13.9913 56.4502 13.9913C56.9878 13.9913 57.356 13.797 57.5215 13.4454H58.3775ZM55.2511 11.9942H57.5255C57.505 11.2872 57.0748 10.8277 56.4176 10.8277C55.7599 10.8277 55.3009 11.2911 55.2511 11.9942Z" fill="white"/>
<path d="M59.6235 10.1583H60.4795V10.8736H60.5459C60.7647 10.3731 61.2114 10.0714 61.8897 10.0714C62.8946 10.0714 63.4488 10.6749 63.4488 11.7462V14.6612H62.5596V11.9693C62.5596 11.2457 62.2451 10.8858 61.5879 10.8858C60.9302 10.8858 60.5127 11.3243 60.5127 12.0269V14.6612H59.6235V10.1583Z" fill="white"/>
<path d="M67.0425 12.4078C67.0425 10.9561 67.853 10.0714 69.168 10.0714C70.4785 10.0714 71.2891 10.9562 71.2891 12.4078C71.2891 13.8673 70.4829 14.7481 69.168 14.7481C67.8486 14.7481 67.0425 13.8673 67.0425 12.4078ZM70.3755 12.4078C70.3755 11.4317 69.937 10.8609 69.168 10.8609C68.3946 10.8609 67.9605 11.4317 67.9605 12.4078C67.9605 13.3917 68.3946 13.9581 69.168 13.9581C69.937 13.9581 70.3755 13.3878 70.3755 12.4078Z" fill="white"/>
<path d="M72.4814 10.1583H73.3374V10.8736H73.4038C73.623 10.3731 74.0693 10.0714 74.7476 10.0714C75.7525 10.0714 76.3067 10.6749 76.3067 11.7462V14.6612H75.4175V11.9693C75.4175 11.2457 75.103 10.8858 74.4458 10.8858C73.7881 10.8858 73.3706 11.3243 73.3706 12.0269V14.6612H72.4814V10.1583Z" fill="white"/>
</g>
<defs>
<linearGradient id="paint0_linear" x1="20.2225" y1="7.41827" x2="20.2225" y2="32.5813" gradientUnits="userSpaceOnUse">
<stop stop-color="#F452FF"/>
<stop offset="1" stop-color="#832BC1"/>
</linearGradient>
<clipPath id="clip0">
<rect width="164.857" height="40" fill="white" transform="translate(0.124268)"/>
</clipPath>
</defs>
</svg>
