<svg width="165" height="41" viewBox="0 0 165 41" fill="none" xmlns="http://www.w3.org/2000/svg">
<path d="M9.77446 0.574739H153.249C158.499 0.574739 162.744 4.74068 162.744 9.86739V30.7221C162.744 35.8488 158.499 40.0147 153.249 40.0147H9.77446C4.52528 40.0147 0.28 35.8488 0.28 30.7221V9.86739C0.28 4.74068 4.52528 0.574739 9.77446 0.574739Z" fill="white" stroke="#9AA0A6" stroke-width="0.56"/>
<path d="M9.15453 18.2748C8.22181 18.2748 7.46704 19.014 7.46704 19.9275V21.7304C7.46704 22.6438 8.22181 23.383 9.15453 23.383C10.0872 23.383 10.842 22.6438 10.842 21.7304V19.9275C10.842 19.014 10.0872 18.2748 9.15453 18.2748Z" fill="#0066D9"/>
<path d="M32.7795 18.2748C31.8468 18.2748 31.092 19.014 31.092 19.9275V21.7304C31.092 22.6438 31.8468 23.383 32.7795 23.383C33.7122 23.383 34.467 22.6438 34.467 21.7304V19.9275C34.467 19.014 33.7122 18.2748 32.7795 18.2748Z" fill="#4285F4"/>
<path d="M14.9841 23.6835C14.0514 23.6835 13.2966 24.4227 13.2966 25.3361V27.139C13.2966 28.0525 14.0514 28.7916 14.9841 28.7916C15.9168 28.7916 16.6716 28.0525 16.6716 27.139V25.3361C16.6716 24.4227 15.9168 23.6835 14.9841 23.6835Z" fill="#EA4335"/>
<path d="M14.9841 12.8661C14.0514 12.8661 13.2966 13.6053 13.2966 14.5188V20.4157H13.2982C13.3196 21.3112 14.0652 22.0308 14.9841 22.0308C15.903 22.0308 16.6486 21.3112 16.6701 20.4157H16.6716V14.5188C16.6716 13.6053 15.9168 12.8661 14.9841 12.8661Z" fill="#EA4335"/>
<path d="M26.9497 12.8661C26.017 12.8661 25.2622 13.6053 25.2622 14.5188V16.3217C25.2622 17.2351 26.017 17.9743 26.9497 17.9743C27.8824 17.9743 28.6372 17.2351 28.6372 16.3217V14.5188C28.6372 13.6053 27.8824 12.8661 26.9497 12.8661Z" fill="#34A853"/>
<path d="M20.9673 7.60779C20.0346 7.60779 19.2798 8.34697 19.2798 9.26043V11.0633C19.2798 11.9768 20.0346 12.716 20.9673 12.716C21.9 12.716 22.6548 11.9768 22.6548 11.0633V9.26043C22.6548 8.34697 21.9 7.60779 20.9673 7.60779Z" fill="#FAB908"/>
<path d="M20.9673 28.9419C20.0346 28.9419 19.2798 29.6811 19.2798 30.5945V32.3974C19.2798 33.3109 20.0346 34.0501 20.9673 34.0501C21.9 34.0501 22.6548 33.3109 22.6548 32.3974V30.5945C22.6548 29.6811 21.9 28.9419 20.9673 28.9419Z" fill="#FAB908"/>
<path d="M26.9497 19.627C26.017 19.627 25.2622 20.3662 25.2622 21.2797V27.139C25.2622 28.0525 26.017 28.7917 26.9497 28.7917C27.8824 28.7917 28.6372 28.0525 28.6372 27.139V21.2797C28.6372 20.3662 27.8824 19.627 26.9497 19.627Z" fill="#34A853"/>
<path d="M22.6548 16.0212C22.6548 15.1078 21.9 14.3686 20.9673 14.3686C20.0346 14.3686 19.2798 15.1078 19.2798 16.0212V20.0281V21.6312V25.6366C19.2798 26.5501 20.0346 27.2893 20.9673 27.2893C21.9 27.2893 22.6548 26.5501 22.6548 25.6366V21.6297V20.0281V16.0212Z" fill="#FAB908"/>
<path d="M43.3275 29.9101V26.1104H45.4136C45.9451 26.1104 46.4367 25.9933 46.8885 25.759C47.3403 25.5248 47.7012 25.1973 47.9714 24.7766C48.2416 24.3558 48.3767 23.8809 48.3767 23.3517C48.3767 22.8225 48.2416 22.3475 47.9714 21.9268C47.7012 21.506 47.3403 21.1785 46.8885 20.9443C46.4367 20.7101 45.9451 20.593 45.4136 20.593H42.2114V29.9101H43.3275ZM45.4402 25.0564H43.3275V21.647H45.4402C45.7945 21.647 46.1068 21.7294 46.3769 21.8942C46.6471 22.0591 46.8575 22.2716 47.0081 22.5319C47.1587 22.7921 47.234 23.0654 47.234 23.3517C47.234 23.638 47.1587 23.9112 47.0081 24.1715C46.8575 24.4317 46.6471 24.6443 46.3769 24.8091C46.1068 24.9739 45.7945 25.0564 45.4402 25.0564ZM52.1104 30.1183C52.7747 30.1183 53.3726 29.9622 53.9041 29.6499C54.4356 29.3376 54.8497 28.9125 55.1465 28.3746C55.4432 27.8368 55.5916 27.2425 55.5916 26.5919C55.5916 25.9412 55.4432 25.347 55.1465 24.8091C54.8497 24.2712 54.4356 23.8462 53.9041 23.5339C53.3726 23.2215 52.7747 23.0654 52.1104 23.0654C51.446 23.0654 50.8481 23.2215 50.3166 23.5339C49.7851 23.8462 49.371 24.2712 49.0742 24.8091C48.7775 25.347 48.6291 25.9412 48.6291 26.5919C48.6291 27.2425 48.7775 27.8368 49.0742 28.3746C49.371 28.9125 49.7851 29.3376 50.3166 29.6499C50.8481 29.9622 51.446 30.1183 52.1104 30.1183ZM52.1104 29.1164C51.694 29.1164 51.3043 29.0144 50.9411 28.8106C50.5779 28.6067 50.2878 28.3139 50.0708 27.9322C49.8538 27.5505 49.7452 27.1037 49.7452 26.5919C49.7452 26.08 49.8538 25.6333 50.0708 25.2515C50.2878 24.8698 50.5779 24.5771 50.9411 24.3732C51.3043 24.1693 51.694 24.0674 52.1104 24.0674C52.5267 24.0674 52.9142 24.1693 53.273 24.3732C53.6317 24.5771 53.9196 24.8698 54.1366 25.2515C54.3537 25.6333 54.4622 26.08 54.4622 26.5919C54.4622 27.1037 54.3537 27.5505 54.1366 27.9322C53.9196 28.3139 53.6317 28.6067 53.273 28.8106C52.9142 29.0144 52.5267 29.1164 52.1104 29.1164ZM59.591 30.1183C60.1136 30.1183 60.5787 30.0034 60.9862 29.7735C61.3936 29.5436 61.7037 29.2638 61.9163 28.9342H61.9694V29.9101H63.0457V20.593H61.9163V23.3387L61.9694 24.2626H61.9163C61.7037 23.9242 61.3936 23.6401 60.9862 23.4102C60.5787 23.1803 60.1136 23.0654 59.591 23.0654C58.9887 23.0654 58.4417 23.2172 57.9501 23.5208C57.4584 23.8245 57.0709 24.2452 56.7874 24.7831C56.504 25.3209 56.3622 25.9239 56.3622 26.5919C56.3622 27.2685 56.504 27.8736 56.7874 28.4072C57.0709 28.9407 57.4584 29.3593 57.9501 29.6629C58.4417 29.9665 58.9887 30.1183 59.591 30.1183ZM59.7239 29.1164C59.3341 29.1164 58.9665 29.0123 58.6211 28.804C58.2756 28.5958 57.9988 28.2987 57.7906 27.9127C57.5824 27.5266 57.4784 27.0864 57.4784 26.5919C57.4784 26.0974 57.5824 25.6571 57.7906 25.2711C57.9988 24.885 58.2756 24.5879 58.6211 24.3797C58.9665 24.1715 59.3341 24.0674 59.7239 24.0674C60.1225 24.0674 60.4923 24.1715 60.8334 24.3797C61.1744 24.5879 61.449 24.8829 61.6572 25.2646C61.8653 25.6463 61.9694 26.0887 61.9694 26.5919C61.9694 27.095 61.8653 27.5375 61.6572 27.9192C61.449 28.3009 61.1744 28.5958 60.8334 28.804C60.4923 29.0123 60.1225 29.1164 59.7239 29.1164ZM67.5367 30.1183C68.2631 30.1183 68.881 29.9492 69.3903 29.6108C69.8996 29.2725 70.2695 28.8301 70.4998 28.2835L69.4899 27.8671C69.3216 28.2662 69.0648 28.5742 68.7193 28.791C68.3738 29.0079 67.9619 29.1164 67.4836 29.1164C67.085 29.1164 66.7129 29.0101 66.3675 28.7975C66.022 28.585 65.7452 28.2879 65.537 27.9062C65.3289 27.5245 65.2248 27.0864 65.2248 26.5919C65.2248 26.0974 65.3289 25.6593 65.537 25.2776C65.7452 24.8959 66.022 24.5987 66.3675 24.3862C66.7129 24.1737 67.085 24.0674 67.4836 24.0674C67.9531 24.0674 68.3539 24.1737 68.6861 24.3862C69.0183 24.5987 69.2685 24.9089 69.4368 25.3166L70.4599 24.9002C70.2473 24.345 69.8908 23.9004 69.3903 23.5664C68.8898 23.2324 68.272 23.0654 67.5367 23.0654C66.8812 23.0654 66.2922 23.2172 65.7695 23.5208C65.2469 23.8245 64.8394 24.2452 64.5471 24.7831C64.2548 25.3209 64.1086 25.9239 64.1086 26.5919C64.1086 27.2599 64.2548 27.8606 64.5471 28.3941C64.8394 28.9277 65.2469 29.3484 65.7695 29.6564C66.2922 29.9644 66.8812 30.1183 67.5367 30.1183ZM73.6355 30.1183C74.1227 30.1183 74.5612 30.0056 74.951 29.78C75.3407 29.5545 75.633 29.2812 75.8279 28.9602H75.8811V29.9101H76.9573V25.707C76.9573 24.8915 76.6938 24.2474 76.1667 23.7746C75.6397 23.3018 74.9155 23.0654 73.9943 23.0654C73.4274 23.0654 72.9114 23.1782 72.4463 23.4037C71.9813 23.6293 71.6159 23.9416 71.3501 24.3407L72.2005 24.9653C72.3865 24.679 72.639 24.4556 72.9579 24.2951C73.2768 24.1346 73.6267 24.0544 74.0076 24.0544C74.5479 24.0544 74.9953 24.204 75.3496 24.5033C75.7039 24.8026 75.8811 25.1995 75.8811 25.694V26.0974C75.695 25.9846 75.4271 25.8848 75.0772 25.7981C74.7273 25.7113 74.3486 25.668 73.9411 25.668C73.1173 25.668 72.4353 25.8653 71.8949 26.26C71.3546 26.6548 71.0844 27.2035 71.0844 27.9062C71.0844 28.3313 71.1907 28.7108 71.4033 29.0448C71.6159 29.3788 71.9171 29.6412 72.3068 29.8321C72.6966 30.0229 73.1395 30.1183 73.6355 30.1183ZM73.7418 29.1424C73.3078 29.1424 72.949 29.0296 72.6656 28.804C72.3821 28.5785 72.2404 28.2835 72.2404 27.9192C72.2404 27.5201 72.3976 27.1948 72.7121 26.9432C73.0265 26.6916 73.4938 26.5658 74.1139 26.5658C74.4593 26.5658 74.7871 26.6092 75.0971 26.696C75.4072 26.7827 75.6685 26.8955 75.8811 27.0343C75.8811 27.416 75.7836 27.7674 75.5887 28.0883C75.3939 28.4093 75.1326 28.6652 74.8048 28.8561C74.4771 29.047 74.1227 29.1424 73.7418 29.1424ZM80.6379 30.1183C81.1339 30.1183 81.5857 30.0359 81.9932 29.8711C82.4006 29.7063 82.7239 29.4699 82.9631 29.1619C83.2023 28.8539 83.3219 28.4961 83.3219 28.0883C83.3219 27.6199 83.1536 27.223 82.817 26.8977C82.4803 26.5724 81.9799 26.3273 81.3155 26.1624L80.3323 25.9152C79.9425 25.8198 79.6502 25.6962 79.4553 25.5443C79.2604 25.3925 79.163 25.1952 79.163 24.9523C79.163 24.692 79.3025 24.4773 79.5815 24.3081C79.8606 24.139 80.1861 24.0544 80.5581 24.0544C81.3288 24.0544 81.8647 24.3493 82.1659 24.9392L83.1491 24.4968C82.9543 24.0457 82.6243 23.6943 82.1592 23.4428C81.6942 23.1912 81.1649 23.0654 80.5714 23.0654C80.1197 23.0654 79.6989 23.1435 79.3091 23.2996C78.9194 23.4558 78.6071 23.6792 78.3724 23.9698C78.1377 24.2604 78.0203 24.5966 78.0203 24.9783C78.0203 25.4728 78.193 25.8762 78.5385 26.1885C78.884 26.5008 79.3269 26.722 79.8672 26.8521L80.691 27.0603C81.2048 27.1818 81.5813 27.3271 81.8204 27.4963C82.0596 27.6654 82.1792 27.8888 82.1792 28.1664C82.1792 28.4787 82.0286 28.7195 81.7274 28.8886C81.4262 29.0578 81.0631 29.1424 80.6379 29.1424C80.2392 29.1424 79.8739 29.0339 79.5417 28.8171C79.2095 28.6002 78.9593 28.2922 78.7909 27.8932L77.7811 28.3356C77.9849 28.8561 78.3303 29.2834 78.8175 29.6174C79.3047 29.9513 79.9115 30.1183 80.6379 30.1183ZM86.9094 30.0142C87.122 30.0142 87.2969 30.0012 87.4342 29.9752C87.5715 29.9492 87.7066 29.9058 87.8395 29.8451V28.765C87.6003 28.9125 87.3523 28.9862 87.0954 28.9862C86.7765 28.9862 86.5329 28.8908 86.3646 28.6999C86.2229 28.5264 86.152 28.2575 86.152 27.8932V24.2756H87.7996V23.2736H86.152V21.3998H85.0226V23.2736H83.8401V24.2756H85.0226V28.1664C85.0226 28.4787 85.0669 28.7433 85.1555 28.9602C85.2441 29.1771 85.3769 29.3679 85.5541 29.5328C85.7136 29.6802 85.9106 29.7974 86.1454 29.8841C86.3801 29.9709 86.6348 30.0142 86.9094 30.0142ZM91.7061 30.1183C92.4147 30.1183 93.0193 29.9622 93.5198 29.6499C94.0202 29.3376 94.4166 28.9125 94.709 28.3746L93.7523 27.9192C93.2828 28.7173 92.614 29.1164 91.7459 29.1164C91.3739 29.1164 91.0173 29.0296 90.6763 28.8561C90.3353 28.6826 90.054 28.4223 89.8326 28.0753C89.6111 27.7283 89.4871 27.3032 89.4605 26.8001H94.8153C94.8418 26.7046 94.8551 26.5919 94.8551 26.4617C94.8551 25.8024 94.7245 25.2168 94.4631 24.705C94.2018 24.1932 93.8276 23.7919 93.3404 23.5013C92.8532 23.2107 92.2774 23.0654 91.613 23.0654C90.9575 23.0654 90.3818 23.2259 89.8857 23.5469C89.3897 23.8679 89.0066 24.2973 88.7364 24.8351C88.4662 25.373 88.3311 25.9629 88.3311 26.6049C88.3311 27.2729 88.4751 27.8736 88.763 28.4072C89.0508 28.9407 89.4517 29.3593 89.9654 29.6629C90.4792 29.9665 91.0594 30.1183 91.7061 30.1183ZM93.6593 25.8892H89.527C89.6421 25.3426 89.8835 24.9024 90.2511 24.5684C90.6187 24.2344 91.0683 24.0674 91.5998 24.0674C92.0604 24.0674 92.4435 24.1628 92.7491 24.3537C93.0547 24.5445 93.2784 24.7787 93.4201 25.0564C93.5618 25.334 93.6416 25.6116 93.6593 25.8892ZM99.1203 30.1183C99.8467 30.1183 100.465 29.9492 100.974 29.6108C101.483 29.2725 101.853 28.8301 102.083 28.2835L101.074 27.8671C100.905 28.2662 100.648 28.5742 100.303 28.791C99.9574 29.0079 99.5455 29.1164 99.0671 29.1164C98.6685 29.1164 98.2965 29.0101 97.951 28.7975C97.6056 28.585 97.3287 28.2879 97.1206 27.9062C96.9124 27.5245 96.8083 27.0864 96.8083 26.5919C96.8083 26.0974 96.9124 25.6593 97.1206 25.2776C97.3287 24.8959 97.6056 24.5987 97.951 24.3862C98.2965 24.1737 98.6685 24.0674 99.0671 24.0674C99.5366 24.0674 99.9375 24.1737 100.27 24.3862C100.602 24.5987 100.852 24.9089 101.02 25.3166L102.043 24.9002C101.831 24.345 101.474 23.9004 100.974 23.5664C100.473 23.2324 99.8555 23.0654 99.1203 23.0654C98.4648 23.0654 97.8757 23.2172 97.3531 23.5208C96.8305 23.8245 96.423 24.2452 96.1307 24.7831C95.8384 25.3209 95.6922 25.9239 95.6922 26.5919C95.6922 27.2599 95.8384 27.8606 96.1307 28.3941C96.423 28.9277 96.8305 29.3484 97.3531 29.6564C97.8757 29.9644 98.4648 30.1183 99.1203 30.1183ZM104.249 29.9101V26.2145C104.249 25.8588 104.335 25.5161 104.508 25.1865C104.681 24.8568 104.916 24.5879 105.212 24.3797C105.509 24.1715 105.835 24.0674 106.189 24.0674C106.685 24.0674 107.088 24.2105 107.398 24.4968C107.708 24.7831 107.863 25.2255 107.863 25.8241V29.9101H108.993V25.6549C108.993 24.8742 108.776 24.2474 108.342 23.7746C107.908 23.3018 107.279 23.0654 106.455 23.0654C105.976 23.0654 105.536 23.1782 105.133 23.4037C104.73 23.6293 104.435 23.9112 104.249 24.2496H104.196L104.249 23.3387V20.593H103.12V29.9101H104.249Z" fill="#3C4043"/>
<path d="M142.937 23.4225C143.774 23.4225 144.435 23.7869 144.776 24.1917H144.828V23.6351H146.295V29.7786C146.295 32.3088 144.776 33.3412 142.978 33.3412C141.283 33.3412 140.26 32.2279 139.878 31.317L141.211 30.7704C141.448 31.3271 142.027 31.985 142.968 31.985C144.115 31.985 144.828 31.2866 144.828 29.981V29.4851H144.776C144.435 29.9 143.774 30.2644 142.937 30.2644C141.19 30.2644 139.588 28.7665 139.588 26.8536C139.588 24.9205 141.19 23.4225 142.937 23.4225ZM127.797 23.5237C129.729 23.5237 131.3 24.9609 131.3 26.9447C131.3 28.9183 129.729 30.3656 127.797 30.3656C125.864 30.3656 124.293 28.9183 124.293 26.9447C124.293 24.9609 125.864 23.5237 127.797 23.5237ZM135.444 23.5237C137.377 23.5237 138.947 24.9609 138.947 26.9447C138.947 28.9183 137.377 30.3656 135.444 30.3656C133.512 30.3656 131.941 28.9183 131.941 26.9447C131.941 24.9609 133.512 23.5237 135.444 23.5237ZM152.909 23.5237C154.718 23.5237 155.607 24.9306 155.896 25.6998L156.051 26.0844L151.38 27.977C151.742 28.6551 152.289 29.0094 153.075 29.0094C153.86 29.0094 154.397 28.6349 154.8 28.0681L155.989 28.8474C155.596 29.4041 154.676 30.3656 153.075 30.3656C151.09 30.3656 149.613 28.8576 149.613 26.9447C149.613 24.9103 151.111 23.5237 152.909 23.5237ZM118.744 19.6777C120.397 19.6777 121.575 20.3154 122.464 21.1453L121.41 22.1675C120.779 21.5805 119.922 21.125 118.744 21.125C116.563 21.125 114.858 22.8456 114.858 24.9812C114.858 27.1167 116.563 28.8373 118.744 28.8373C120.159 28.8373 120.966 28.2807 121.482 27.7746C121.906 27.3596 122.185 26.7625 122.288 25.9528H118.744V24.5055H123.735C123.787 24.7686 123.818 25.0723 123.818 25.4164C123.818 26.5095 123.518 27.8556 122.536 28.807C121.575 29.7786 120.356 30.2948 118.744 30.2948C115.747 30.2948 113.235 27.9163 113.235 24.9913C113.235 22.0562 115.747 19.6777 118.744 19.6777ZM148.869 20.0826V30.1328H147.339V20.0826H148.869ZM127.797 24.8597C126.732 24.8597 125.823 25.6998 125.823 26.9346C125.823 28.1592 126.742 29.0094 127.797 29.0094C128.851 29.0094 129.77 28.1592 129.77 26.9346C129.77 25.6998 128.851 24.8597 127.797 24.8597ZM135.444 24.8597C134.38 24.8597 133.47 25.6998 133.47 26.9346C133.47 28.1592 134.39 29.0094 135.444 29.0094C136.498 29.0094 137.418 28.1592 137.418 26.9346C137.418 25.6998 136.509 24.8597 135.444 24.8597ZM143.071 24.7686C142.017 24.7686 141.128 25.6492 141.128 26.8536C141.128 28.0479 142.017 28.9183 143.071 28.9183C144.115 28.9183 144.941 28.058 144.931 26.8536C144.931 25.6492 144.115 24.7686 143.071 24.7686ZM152.961 24.8395C152.176 24.8395 151.09 25.5176 151.132 26.8333L154.253 25.5682C154.087 25.133 153.571 24.8395 152.961 24.8395Z" fill="#3C4043"/>
<path d="M43.0868 16.2349V13.2376H44.9285C45.8126 13.2376 46.4918 13.037 46.9661 12.6356C47.4404 12.2342 47.6775 11.6619 47.6775 10.9187C47.6775 10.2141 47.435 9.6479 46.95 9.22022C46.465 8.79254 45.7947 8.57869 44.9392 8.57869H42.0559V16.2349H43.0868ZM44.9392 12.4121H43.0868V9.40952H44.9983C45.5101 9.42004 45.9128 9.56202 46.2064 9.83545C46.4999 10.1089 46.6466 10.4735 46.6466 10.9292C46.6466 11.4095 46.4999 11.7767 46.2064 12.0308C45.9128 12.285 45.4904 12.4121 44.9392 12.4121ZM51.4264 16.3401C51.949 16.3401 52.4116 16.2174 52.8143 15.972C53.217 15.7266 53.5266 15.384 53.7432 14.944C53.9598 14.504 54.068 14.0071 54.068 13.4532V13.3849C54.068 12.4945 53.8237 11.7811 53.3351 11.2447C52.8465 10.7084 52.2067 10.4402 51.4156 10.4402C50.9037 10.4402 50.4483 10.5611 50.0491 10.803C49.65 11.0449 49.3386 11.3884 49.1149 11.8337C48.8912 12.2789 48.7793 12.7802 48.7793 13.3376V13.4059C48.7793 14.2893 49.0236 14.9992 49.5122 15.5356C50.0008 16.0719 50.6389 16.3401 51.4264 16.3401ZM51.4264 15.5461C50.9252 15.5461 50.5252 15.355 50.2263 14.9729C49.9274 14.5908 49.778 14.0843 49.778 13.4532C49.778 12.7416 49.9283 12.1947 50.229 11.8126C50.5297 11.4305 50.9252 11.2395 51.4156 11.2395C51.9168 11.2395 52.3186 11.4331 52.621 11.8205C52.9235 12.2079 53.0747 12.7136 53.0747 13.3376C53.0747 14.0352 52.9262 14.5777 52.6291 14.965C52.332 15.3524 51.9311 15.5461 51.4264 15.5461ZM57.7256 16.3401C58.3878 16.3401 58.9265 16.1867 59.3417 15.88C59.757 15.5733 59.9646 15.1657 59.9646 14.6574C59.9646 14.3524 59.8903 14.0939 59.7417 13.8818C59.5932 13.6697 59.365 13.4883 59.0572 13.3376C58.7493 13.1868 58.3475 13.0571 57.8518 12.9484C57.356 12.8398 57.0133 12.7258 56.8236 12.6066C56.6338 12.4874 56.539 12.3104 56.539 12.0755C56.539 11.8266 56.641 11.6251 56.845 11.4708C57.0491 11.3166 57.3318 11.2395 57.6934 11.2395C58.0442 11.2395 58.335 11.3359 58.5659 11.5287C58.7968 11.7215 58.9122 11.9511 58.9122 12.2175H59.9109C59.9109 11.6987 59.706 11.2728 59.2961 10.9397C58.8862 10.6067 58.352 10.4402 57.6934 10.4402C57.067 10.4402 56.5524 10.6014 56.1497 10.9239C55.747 11.2465 55.5457 11.6408 55.5457 12.1071C55.5457 12.3875 55.6164 12.6294 55.7577 12.8327C55.8991 13.0361 56.1175 13.2114 56.4128 13.3586C56.7081 13.5058 57.1072 13.632 57.6101 13.7372C58.1131 13.8424 58.4657 13.9677 58.6679 14.1132C58.8701 14.2587 58.9713 14.4629 58.9713 14.7258C58.9713 14.9747 58.8576 15.1736 58.6303 15.3226C58.403 15.4716 58.1014 15.5461 57.7256 15.5461C57.3175 15.5461 56.9891 15.4506 56.7403 15.2595C56.4915 15.0685 56.3582 14.8099 56.3403 14.4839H55.347C55.347 14.8204 55.4481 15.1333 55.6504 15.4225C55.8526 15.7117 56.1327 15.937 56.4907 16.0982C56.8486 16.2595 57.2602 16.3401 57.7256 16.3401ZM62.6127 16.2349V8.15802H61.6194V16.2349H62.6127ZM66.8609 16.3401C67.3835 16.3401 67.8461 16.2174 68.2488 15.972C68.6515 15.7266 68.9611 15.384 69.1777 14.944C69.3943 14.504 69.5025 14.0071 69.5025 13.4532V13.3849C69.5025 12.4945 69.2582 11.7811 68.7696 11.2447C68.281 10.7084 67.6412 10.4402 66.8501 10.4402C66.3383 10.4402 65.8828 10.5611 65.4836 10.803C65.0845 11.0449 64.7731 11.3884 64.5494 11.8337C64.3257 12.2789 64.2138 12.7802 64.2138 13.3376V13.4059C64.2138 14.2893 64.4581 14.9992 64.9467 15.5356C65.4353 16.0719 66.0734 16.3401 66.8609 16.3401ZM66.8609 15.5461C66.3597 15.5461 65.9597 15.355 65.6608 14.9729C65.3619 14.5908 65.2125 14.0843 65.2125 13.4532C65.2125 12.7416 65.3628 12.1947 65.6635 11.8126C65.9642 11.4305 66.3597 11.2395 66.8501 11.2395C67.3513 11.2395 67.7531 11.4331 68.0555 11.8205C68.358 12.2079 68.5092 12.7136 68.5092 13.3376C68.5092 14.0352 68.3607 14.5777 68.0636 14.965C67.7665 15.3524 67.3656 15.5461 66.8609 15.5461ZM72.9077 16.3401C73.6559 16.3401 74.2232 16.1175 74.6098 15.6723L74.6313 16.2349H75.5763V10.5453H74.5829V14.6837C74.3324 15.2376 73.8277 15.5145 73.0688 15.5145C72.3529 15.5145 71.995 15.0834 71.995 14.221V10.5453H71.0016V14.2473C71.0052 14.9379 71.169 15.4593 71.4929 15.8116C71.8169 16.164 72.2885 16.3401 72.9077 16.3401ZM79.6902 16.3401C80.0839 16.3401 80.4571 16.2525 80.8097 16.0772C81.1623 15.9019 81.4442 15.667 81.6553 15.3726C81.8665 15.0781 81.9811 14.7678 81.999 14.4418H81.0594C81.0307 14.7573 80.884 15.0202 80.6191 15.2306C80.3542 15.4409 80.0446 15.5461 79.6902 15.5461C79.1783 15.5461 78.7846 15.3691 78.509 15.015C78.2333 14.6609 78.0955 14.1561 78.0955 13.5006V13.3165C78.0955 12.6434 78.2342 12.129 78.5116 11.7732C78.7891 11.4174 79.1801 11.2395 79.6848 11.2395C80.0607 11.2395 80.3766 11.3578 80.6325 11.5944C80.8884 11.831 81.0307 12.1334 81.0594 12.5015H81.999C81.9703 11.8915 81.7404 11.3955 81.309 11.0133C80.8777 10.6312 80.3363 10.4402 79.6848 10.4402C79.1551 10.4402 78.696 10.5594 78.3076 10.7977C77.9192 11.0361 77.6212 11.3709 77.4136 11.8021C77.206 12.2333 77.1022 12.7258 77.1022 13.2797V13.4427C77.1022 14.3402 77.3358 15.0474 77.8029 15.5645C78.27 16.0816 78.8991 16.3401 79.6902 16.3401ZM84.384 16.2349V12.1807C84.52 11.9073 84.7098 11.6864 84.9532 11.5181C85.1966 11.3499 85.4793 11.2657 85.8015 11.2657C86.1988 11.2657 86.4915 11.3639 86.6794 11.5602C86.8673 11.7565 86.9631 12.0598 86.9666 12.4699V16.2349H87.9599V12.4752C87.9492 11.1185 87.33 10.4402 86.1022 10.4402C85.397 10.4402 84.8243 10.7048 84.384 11.2342V8.15802H83.3907V16.2349H84.384ZM92.1329 16.3401C93.1066 16.3401 93.8368 15.9738 94.3236 15.2411L93.7169 14.7784C93.5343 15.0097 93.3213 15.1955 93.0779 15.3358C92.8345 15.476 92.5374 15.5461 92.1866 15.5461C91.6927 15.5461 91.2855 15.3734 90.9651 15.0281C90.6448 14.6828 90.4774 14.2297 90.4631 13.6688H94.3988V13.2639C94.3988 12.356 94.1894 11.6584 93.7706 11.1711C93.3518 10.6838 92.7647 10.4402 92.0095 10.4402C91.5477 10.4402 91.119 10.5655 90.7235 10.8161C90.328 11.0668 90.0201 11.4139 89.8 11.8573C89.5799 12.3008 89.4698 12.8047 89.4698 13.3691V13.5479C89.4698 14.3963 89.7168 15.0737 90.2107 15.5803C90.7047 16.0868 91.3455 16.3401 92.1329 16.3401ZM93.4055 12.8696H90.4953C90.5598 12.3542 90.728 11.9537 91 11.668C91.2721 11.3823 91.6086 11.2395 92.0095 11.2395C92.4247 11.2395 92.754 11.3753 92.9974 11.647C93.2408 11.9187 93.3768 12.3016 93.4055 12.7959V12.8696ZM96.3328 9.58831C96.5261 9.58831 96.6728 9.53572 96.7731 9.43056C96.8733 9.32539 96.9234 9.19393 96.9234 9.03618C96.9234 8.87842 96.8733 8.74521 96.7731 8.63654C96.6728 8.52786 96.5261 8.47352 96.3328 8.47352C96.1431 8.47352 95.999 8.52874 95.9006 8.63916C95.8021 8.74959 95.7529 8.88193 95.7529 9.03618C95.7529 9.19393 95.8012 9.32539 95.8979 9.43056C95.9945 9.53572 96.1395 9.58831 96.3328 9.58831ZM95.3287 18.5329C96.3417 18.5329 96.8482 17.986 96.8482 16.8922V10.5453H95.8549V16.9133C95.8549 17.2042 95.7968 17.4084 95.6804 17.5259C95.5641 17.6433 95.395 17.702 95.173 17.702C94.9869 17.702 94.8366 17.688 94.722 17.66V18.4382C94.9081 18.5013 95.1104 18.5329 95.3287 18.5329ZM100.42 16.3401C100.667 16.3401 100.921 16.3051 101.182 16.2349V15.4462C100.982 15.4882 100.824 15.5093 100.71 15.5093C100.477 15.5093 100.312 15.4523 100.216 15.3384C100.119 15.2245 100.071 15.0536 100.071 14.8257V11.2973H101.155V10.5453H100.071V9.16764H99.0776V10.5453H98.0198V11.2973H99.0776V14.8257C99.0776 15.3095 99.1903 15.6828 99.4158 15.9457C99.6413 16.2087 99.976 16.3401 100.42 16.3401ZM105.001 16.3401C105.975 16.3401 106.705 15.9738 107.192 15.2411L106.585 14.7784C106.402 15.0097 106.189 15.1955 105.946 15.3358C105.703 15.476 105.405 15.5461 105.055 15.5461C104.561 15.5461 104.153 15.3734 103.833 15.0281C103.513 14.6828 103.345 14.2297 103.331 13.6688H107.267V13.2639C107.267 12.356 107.057 11.6584 106.639 11.1711C106.22 10.6838 105.633 10.4402 104.877 10.4402C104.416 10.4402 103.987 10.5655 103.592 10.8161C103.196 11.0668 102.888 11.4139 102.668 11.8573C102.448 12.3008 102.338 12.8047 102.338 13.3691V13.5479C102.338 14.3963 102.585 15.0737 103.079 15.5803C103.573 16.0868 104.213 16.3401 105.001 16.3401ZM106.273 12.8696H103.363C103.428 12.3542 103.596 11.9537 103.868 11.668C104.14 11.3823 104.477 11.2395 104.877 11.2395C105.293 11.2395 105.622 11.3753 105.865 11.647C106.109 11.9187 106.245 12.3016 106.273 12.7959V12.8696ZM113.975 16.2349L116.058 10.5453H115.044L113.605 14.9151L112.128 10.5453H111.113L113.218 16.2349H113.975Z" fill="#5F6368"/>
</svg>
